<svg width="1920" height="647" viewBox="0 0 1920 647" fill="none" xmlns="http://www.w3.org/2000/svg">
<g clip-path="url(#clip0_4_41)">
<path d="M1397.98 -566.079C1291.73 -507.639 1065.48 -361.958 1010.47 -246.749C944.294 -108.122 953.402 256.779 887.276 490.516C884.708 499.595 882.025 508.476 879.221 517.138C842.71 629.914 795.832 741.207 748.68 822.846C698.97 908.915 648.955 962.026 610.464 949.172C581.234 939.412 546.308 903.974 528.995 822.846C513.812 751.704 512.172 645.425 539.792 490.516C561.495 368.8 601.261 217.06 666.716 28.7513C704.217 -79.1369 639.631 32.9256 616.714 72.5809C482.829 304.251 229.204 679.934 16.6981 892.82C-29.1365 934.563 -108.305 975.47 -58.3039 805.161C4.19775 592.274 137.068 237.085 204.203 91.365C241.704 9.96722 304.206 -134.044 385.458 -227.965C446.311 -298.306 435.459 -284.317 316.706 -209.181C195.87 -134.044 -74.5543 53.7968 -189.557 204.07C-333.311 391.911 -270.81 398.172 -152.056 410.695C-57.0538 420.713 -49.9703 435.74 -58.3039 442.002" stroke="#FFD18F" stroke-opacity="0.8" stroke-width="0.3" stroke-linecap="round" stroke-linejoin="round"/>
<path d="M1054.44 -647.195C940.271 -606.335 693.785 -498.357 621.218 -393.322C533.901 -266.938 485.057 94.7938 382.719 315.095C378.744 323.652 374.688 331.996 370.546 340.104C316.622 445.668 252.696 548.123 193.2 621.257C130.476 698.358 72.676 742.871 36.7085 724.079C9.39524 709.808 -19.4719 669.283 -23.7082 586.437C-27.423 513.787 -12.1968 408.592 39.6281 260.019C80.348 143.281 143.663 -0.237168 238.137 -175.791C292.264 -276.372 210.734 -175.963 181.821 -140.441C12.9078 67.0801 -297.057 397.813 -540.619 574.326C-592.491 608.276 -677.143 636.118 -600.779 475.887C-505.325 275.598 -317.836 -54.0411 -228.453 -187.278C-178.524 -261.703 -93.9868 -393.987 1.12476 -473.842C72.3578 -533.648 59.4259 -521.556 -69.7353 -466.192C-200.954 -411.158 -497.732 -268.554 -635.1 -138.409C-806.809 24.2719 -746.09 40.3607 -630.823 71.5477C-538.609 96.4972 -533.997 112.457 -543.218 117.319" stroke="#FFD18F" stroke-opacity="0.8" stroke-width="0.3" stroke-linecap="round" stroke-linejoin="round"/>
<path d="M912.036 -477.982C797.864 -437.123 551.377 -329.145 478.81 -224.11C391.493 -97.7253 342.649 264.006 240.311 484.308C236.336 492.865 232.281 501.208 228.139 509.317C174.214 614.88 110.289 717.336 50.7926 790.469C-11.9312 867.571 -69.7316 912.083 -105.699 893.291C-133.012 879.021 -161.88 838.495 -166.116 755.649C-169.831 682.999 -154.604 577.804 -102.78 429.231C-62.0596 312.493 1.25499 168.975 95.7294 -6.57873C149.857 -107.159 68.3259 -6.75013 39.4129 28.7715C-129.5 236.293 -439.465 567.026 -683.027 743.539C-734.898 777.488 -819.55 805.331 -743.187 645.1C-647.732 444.811 -460.244 115.171 -370.861 -18.0654C-320.932 -92.4902 -236.394 -224.775 -141.283 -304.629C-70.0498 -364.436 -82.9817 -352.344 -212.143 -296.98C-343.361 -241.946 -640.14 -99.3421 -777.507 30.803C-949.217 193.484 -888.498 209.573 -773.231 240.76C-681.017 265.71 -676.405 281.67 -685.626 286.531" stroke="#FFD18F" stroke-opacity="0.8" stroke-width="0.3" stroke-linecap="round" stroke-linejoin="round"/>
</g>
<defs>
<clipPath id="clip0_4_41">
<rect width="1920" height="647" fill="white"/>
</clipPath>
</defs>
</svg>
